# xmcd CD database file
#
# Track frame offsets:
#	150
#	8440
#	28056
#	54441
#	78164
#	97397
#	119091
#	141553
#	163389
#	187763
#	207087
#	226406
#	244657
#	262659
#	269749
#	287507
#	305437
#	335406
#
# Disc length: 4691 seconds
#
# Revision: 0
# Processed by: cddbd v1.5.2PL0 Copyright (c) Steve Scherf et al.
# Submitted via: CDex 1.70beta2
#
DISCID=00125112
DTITLE=Salsa Mix Party - cd 2
DYEAR=1900
DGENRE=Salsa
TTITLE0=Intro  Dj Del Antigua
TTITLE1=Salsa  Yuri Buenaventura
TTITLE2=Rebelion  La Verdad , Joe Arroyo
TTITLE3=Never Leave You (Remix)  Euro Cuban Project
TTITLE4=Micaela (Remix Feat. Bimbo)  Sonora Carruseles 
TTITLE5=Betece  Africando
TTITLE6=La Manteca (Feat. El Niсo)  Calle 23 
TTITLE7=Su Majestad El Tambor  La Nueva Edicion De La Salsa
TTITLE8=Pesadilla  La Ocho Y Media
TTITLE9=Llego Candela  Luis Haseth
TTITLE10=Si Yo Fuera Dios  Mayito Rivera
TTITLE11=Los Sitios Enteros  Ng La Banda
TTITLE12=Esto Te Pone La Cabeza Mala  Los Van Van
TTITLE13=Preparence Bailadores  Son Candela
TTITLE14=La Voluminosa  Cesar Pedroso
TTITLE15=Fuego Y Madera  Borys 
TTITLE16=Alto Songo  Afro-Cuban All Stars 
TTITLE17=Mi Swing Es Tropical (Feat. Tempo Alomar) Candella All Stars , Quantic , Nickodemus 
EXTD=
EXTT0=
EXTT1=
EXTT2=
EXTT3=
EXTT4=
EXTT5=
EXTT6=
EXTT7=
EXTT8=
EXTT9=
EXTT10=
EXTT11=
EXTT12=
EXTT13=
EXTT14=
EXTT15=
EXTT16=
EXTT17=
PLAYORDER=
